<svg width="59" height="58" viewBox="0 0 59 58" fill="none" xmlns="http://www.w3.org/2000/svg">
<path opacity="0.6" d="M26.1904 57.128C14.1841 60.404 4.37624 44.4421 1.12832 32.539C-2.11959 20.6359 4.89553 3.94306 16.9018 0.666979C28.9082 -2.60911 55.1566 22.6508 58.4046 34.5539C61.6525 46.457 38.1967 53.8519 26.1904 57.128Z" fill="#FFF6E4"></path>
<g clip-path="url(#clip0_613_6091)">
<path d="M42.0235 36.4881L37.5906 33.0184C37.886 31.7095 37.594 30.4466 36.7096 29.3601C34.9366 27.1766 34.5459 24.5922 34.1339 21.8569C33.5373 17.9022 32.8599 13.421 27.8598 9.49776C25.097 7.32968 22.2568 6.22968 19.4176 6.22968C14.2034 6.22968 10.914 9.92229 10.7902 10.0644C10.5712 10.3072 5.40146 16.0866 6.35012 22.9903C6.92792 27.1964 9.63368 30.8416 14.3953 33.8283L14.4872 33.8801C14.8706 34.0706 23.9201 38.5281 26.6278 39.3641C27.8448 39.7393 28.8472 39.9153 29.7784 39.9153C30.5873 39.9153 31.3373 39.7712 32.0311 39.4937L37.0273 42.6303C36.8266 44.1282 36.7483 47.4098 39.5474 48.9421C40.2867 49.3463 41.0975 49.545 41.9016 49.545C43.0805 49.545 44.2457 49.121 45.1562 48.3C46.2678 47.2976 46.7716 45.9148 46.5913 44.4957C47.4737 44.2776 48.6008 43.8086 49.2733 42.8082C49.7162 42.1467 50.1132 40.9998 49.4895 39.2906C48.211 35.7769 44.3241 35.8601 42.0235 36.4881ZM33.5852 35.3219L33.4875 35.4805C32.2134 37.5794 30.7604 37.8212 29.7799 37.8212C29.0628 37.8212 28.2587 37.6757 27.2463 37.3643C24.7929 36.6076 16.1873 32.3821 15.463 32.0267C11.2859 29.394 8.91759 26.2637 8.42682 22.719C7.60436 16.7921 12.2945 11.5237 12.3525 11.4604C12.3801 11.4294 15.1762 8.32524 19.4186 8.32524C21.7782 8.32524 24.1837 9.2739 26.5684 11.1456C30.9142 14.5568 31.4712 18.2547 32.063 22.1707C32.4997 25.0626 32.9513 28.0546 35.0845 30.6811C35.5062 31.198 35.9747 32.0475 35.2025 33.4478C34.6436 34.4641 33.736 35.201 33.7302 35.2073L33.5852 35.3219ZM47.538 41.6366C47.0588 42.3546 45.6842 42.5746 45.2442 42.5954C44.9009 42.608 44.5876 42.7888 44.4024 43.079C44.2186 43.3695 44.1863 43.7312 44.3202 44.047C44.9222 45.4791 44.1258 46.4104 43.7569 46.743C43.0297 47.3987 41.7575 47.7642 40.5531 47.1042C38.3618 45.9051 39.1901 42.4049 39.1983 42.3725C39.3085 41.9325 39.1238 41.4722 38.7385 41.2314L33.9575 38.2307C34.4018 37.8038 34.8138 37.3043 35.1851 36.7164C35.4772 36.4611 36.1401 35.8344 36.7077 34.9863L41.1633 38.473C41.4428 38.691 41.8165 38.752 42.1521 38.6388C42.3271 38.5764 46.4917 37.1762 47.523 40.0062C47.7826 40.7131 47.7865 41.2629 47.538 41.6366Z" fill="#E87507"></path>
<path d="M23.9835 12.0643C19.6918 9.62641 16.2105 11.471 14.9693 12.7862C14.5723 13.2068 14.5917 13.8697 15.0109 14.2667C15.214 14.4572 15.4717 14.5515 15.7304 14.5515C16.0079 14.5515 16.2854 14.4422 16.4914 14.2237C16.5151 14.1976 18.998 11.6417 22.9488 13.8857C23.4511 14.171 24.0904 13.9955 24.3761 13.4926C24.6624 12.9893 24.4868 12.351 23.9835 12.0643Z" fill="#E87507"></path>
<path d="M25.904 13.7136C25.1986 13.7136 24.6232 14.2889 24.6232 14.9958C24.6232 15.7013 25.1986 16.2781 25.904 16.2781C26.6109 16.2781 27.1863 15.7013 27.1863 14.9958C27.1863 14.2889 26.6114 13.7136 25.904 13.7136Z" fill="#E87507"></path>
</g>
<defs>
<clipPath id="clip0_613_6091">
<rect width="44" height="44" fill="white" transform="translate(6 6)"></rect>
</clipPath>
</defs>
</svg>