<svg width="55" height="45" viewBox="0 0 55 45" fill="none" xmlns="http://www.w3.org/2000/svg">
<path opacity="0.6" d="M51.4509 30.3614C51.4509 42.691 35.1963 45 24.0425 45C12.8887 45 0 33.9419 0 21.6123C0 9.2828 38.3183 0 49.4721 0C60.6258 0 51.4509 18.0319 51.4509 30.3614Z" fill="#EDF7FB"></path>
<path d="M46.9479 14.9952C46.9479 11.8824 45.4724 8.49729 42.6809 5.20572C40.6092 2.76294 38.5605 1.233 38.4743 1.16906C38.1703 0.943646 37.7544 0.943646 37.4504 1.16906C37.3642 1.233 35.3155 2.76294 33.2438 5.20572C32.7622 5.77359 32.3198 6.3443 31.9173 6.91596C28.9073 3.82238 26.4384 1.98057 26.3275 1.89824C26.0234 1.67283 25.6077 1.67283 25.3036 1.89824C25.138 2.02113 21.2022 4.96045 17.2081 9.66983C14.8531 12.4465 12.9743 15.2608 11.6238 18.0346C9.91731 21.5394 9.052 24.9921 9.052 28.2969C9.05192 37.507 16.572 45 25.8154 45C35.0588 45 42.5788 37.507 42.5788 28.2969C42.5788 26.5874 42.3458 24.8257 41.8856 23.0506C44.8799 21.5962 46.9479 18.5319 46.9479 14.9952ZM40.8601 28.2968C40.8601 36.5592 34.111 43.2813 25.8154 43.2813C17.5197 43.2813 10.7707 36.5592 10.7707 28.2969C10.7707 21.3825 14.971 14.971 18.4947 10.81C21.5417 7.21176 24.6254 4.62641 25.8156 3.67732C26.7213 4.39919 28.722 6.06681 30.9624 8.40156C29.6552 10.6487 28.9767 12.8846 28.9767 14.9954C28.9767 19.9331 33.0076 23.9501 37.9623 23.9501C38.7581 23.9501 39.5301 23.8465 40.2654 23.652C40.6602 25.2282 40.8601 26.7872 40.8601 28.2968ZM37.9623 22.2312C33.9554 22.2312 30.6954 18.9852 30.6954 14.9952C30.6954 9.41175 36.2305 4.3918 37.9628 2.95785C39.6966 4.39043 45.2292 9.40144 45.2292 14.9952C45.2292 18.9852 41.9692 22.2312 37.9623 22.2312Z" fill="#3CA0DB"></path>
<path d="M27.9988 24.0436C28.4735 24.0436 28.8582 23.6588 28.8582 23.1842C28.8582 22.7097 28.4735 22.3248 27.9988 22.3248H23.6321C23.1574 22.3248 22.7727 22.7097 22.7727 23.1842V33.5556C22.7727 34.0301 23.1574 34.4149 23.6321 34.4149H27.9988C28.4735 34.4149 28.8582 34.0301 28.8582 33.5556C28.8582 33.081 28.4735 32.6962 27.9988 32.6962H24.4915V29.2292H27.6769C28.1515 29.2292 28.5363 28.8444 28.5363 28.3698C28.5363 27.8953 28.1515 27.5105 27.6769 27.5105H24.4915V24.0436H27.9988Z" fill="#3CA0DB"></path>
<path d="M41.6391 14.6005C40.4032 13.9241 39.3926 12.9127 38.7165 11.6757C38.5659 11.4 38.2766 11.2285 37.9624 11.2285C37.6482 11.2285 37.359 11.4 37.2083 11.6757C36.5322 12.9127 35.5216 13.9241 34.2857 14.6005C34.0101 14.7513 33.8389 15.0403 33.8389 15.3543C33.8389 15.6683 34.0101 15.9574 34.2857 16.1082C35.5217 16.7847 36.5323 17.7961 37.2083 19.033C37.359 19.3087 37.6481 19.4803 37.9624 19.4803C38.2767 19.4803 38.5658 19.3087 38.7165 19.033C39.3925 17.796 40.4031 16.7847 41.6392 16.1081C41.9147 15.9573 42.0859 15.6683 42.0859 15.3543C42.0859 15.0403 41.9145 14.7513 41.6391 14.6005ZM37.9624 17.0481C37.4755 16.4108 36.9067 15.8417 36.2697 15.3544C36.9068 14.8672 37.4754 14.2981 37.9624 13.6607C38.4494 14.2981 39.0181 14.8671 39.6551 15.3544C39.0181 15.8417 38.4493 16.4108 37.9624 17.0481Z" fill="#3CA0DB"></path>
</svg>