<svg width="44" height="44" viewBox="0 0 44 44" fill="none" xmlns="http://www.w3.org/2000/svg">
<g clip-path="url(#clip0_660_4333)">
<path d="M0.916016 34.3064C2.04877 31.9956 3.80797 29.8324 7.05655 29.8324C8.25878 29.8458 9.43943 30.1534 10.4953 30.7284C15.2158 32.8649 20.0884 28.3363 20.0442 23.0847C19.9401 10.7323 13.4936 14.0872 11.5009 5.54736" stroke="#E87507" stroke-width="2" stroke-linecap="round" stroke-linejoin="round"></path>
<path d="M42.9784 23.9088C43.0464 23.0323 43.0809 22.1153 43.0819 21.1575C43.0819 6.62804 33.4297 6.28642 31.6433 6.28642H31.5834C25.3083 6.28642 24.6177 9.48299 22.7144 9.48299C22.4147 9.4835 22.119 9.41495 21.85 9.28265C21.5811 9.15036 21.3463 8.95788 21.1638 8.72016C18.361 5.10684 16.4961 5.34446 16.4961 1.49951" stroke="#E87507" stroke-width="2" stroke-linecap="round" stroke-linejoin="round"></path>
<path d="M4.44336 39.341C4.98022 38.7514 5.42102 38.081 5.74961 37.3544C5.885 37.0091 6.12167 36.7128 6.42853 36.5045C6.7354 36.2961 7.0981 36.1855 7.46901 36.187C9.93781 36.187 12.4827 43.0834 23.2205 43.0834C25.1745 43.0603 27.1169 42.7798 28.9977 42.2494" stroke="#E87507" stroke-width="2" stroke-linecap="round" stroke-linejoin="round"></path>
<path d="M10.4961 30.7282C12.0567 31.3492 13.7249 31.6545 15.4042 31.6264C17.1828 31.5846 18.9443 31.2682 20.6263 30.6885" stroke="#E87507" stroke-width="2" stroke-linecap="round" stroke-linejoin="round"></path>
<path d="M28.9258 33.4557L32.0956 37.335L38.2125 29.8477" stroke="#E87507" stroke-width="2" stroke-linecap="round" stroke-linejoin="round"></path>
<path d="M33.332 43.0547C38.6478 43.0547 42.957 38.7454 42.957 33.4297C42.957 28.1139 38.6478 23.8047 33.332 23.8047C28.0163 23.8047 23.707 28.1139 23.707 33.4297C23.707 38.7454 28.0163 43.0547 33.332 43.0547Z" stroke="#E87507" stroke-width="2" stroke-linecap="round" stroke-linejoin="round"></path>
</g>
<defs>
<clipPath id="clip0_660_4333">
<rect width="44" height="44" fill="white"></rect>
</clipPath>
</defs>
</svg>