<svg width="44" height="44" viewBox="0 0 44 44" fill="none" xmlns="http://www.w3.org/2000/svg">
<path d="M42.3084 12.0192L36.7323 2.36441C36.5811 2.10246 36.3018 1.94133 35.9994 1.94133H24.8383C24.5358 1.94133 24.2565 2.10246 24.1053 2.36441L20.1255 9.25552C19.8477 9.18022 19.5594 9.1419 19.2622 9.1419C17.737 9.1419 16.4623 10.1877 16.0857 11.5961H8.62913L6.77569 7.72269C7.62164 7.12444 8.17879 6.14328 8.17879 5.03095C8.17879 3.21139 6.69802 1.73145 4.87846 1.73145C3.05889 1.73145 1.57812 3.21139 1.57812 5.03095C1.57812 6.85051 3.05889 8.33128 4.87846 8.33128C4.9803 8.33128 5.07636 8.31021 5.17593 8.30112L7.13896 12.4034L1.79214 21.683C1.64093 21.9441 1.64093 22.2664 1.79214 22.5283L7.1338 31.791L5.48952 35.0417C5.33211 35.0186 5.17511 34.9934 5.01149 34.9934C3.19193 34.9934 1.71116 36.4742 1.71116 38.2937C1.71116 40.1133 3.19193 41.5932 5.01149 41.5932C6.83106 41.5932 8.311 40.1133 8.311 38.2937C8.311 37.2451 7.81025 36.3202 7.04559 35.7152L8.61818 32.6061H16.0857C16.4623 34.0143 17.7371 35.0595 19.2622 35.0595C19.5597 35.0595 19.8483 35.021 20.1252 34.9462L24.1053 41.8461C24.2565 42.108 24.5358 42.2692 24.8383 42.2692H35.9994C36.3018 42.2692 36.5811 42.108 36.7323 41.8461L42.3084 32.1831C42.4596 31.9211 42.4596 31.5989 42.3084 31.3369L38.2274 24.2683C38.8389 23.6612 39.1973 22.8208 39.1973 21.9276C39.1973 21.1033 38.8887 20.3212 38.3472 19.7213L42.3084 12.8653C42.4596 12.6034 42.4596 12.2811 42.3084 12.0192ZM3.27043 5.03095C3.27043 4.14513 3.99181 3.42375 4.87846 3.42375C5.7651 3.42375 6.48648 4.14513 6.48648 5.03095C6.48648 5.91759 5.7651 6.63897 4.87846 6.63897C3.99181 6.63897 3.27043 5.91759 3.27043 5.03095ZM5.01149 39.9009C4.12485 39.9009 3.40347 39.1795 3.40347 38.2937C3.40347 37.4071 4.12485 36.6857 5.01149 36.6857C5.89731 36.6857 6.61869 37.4071 6.61869 38.2937C6.61869 39.1795 5.89731 39.9009 5.01149 39.9009ZM19.2622 10.8342C20.1511 10.8342 20.8703 11.5569 20.8703 12.4422C20.8703 13.3498 20.1353 14.0494 19.2622 14.0494C18.3756 14.0494 17.6542 13.3281 17.6542 12.4422C17.6542 11.5556 18.3756 10.8342 19.2622 10.8342ZM8.58203 13.2884H16.0718C16.5312 15.0182 18.3566 16.1043 20.1239 15.6289C20.1243 15.6287 20.1249 15.6287 20.1253 15.6286L23.8611 22.105L20.1557 28.5211L20.1258 28.5729C20.1245 28.5725 20.1231 28.5725 20.1217 28.572C18.3292 28.088 16.5227 29.2157 16.0718 30.9138H8.58203L3.5018 22.1052L8.58203 13.2884ZM17.6542 31.76C17.6542 30.8733 18.3756 30.152 19.2622 30.152C20.1511 30.152 20.8703 30.8747 20.8703 31.76C20.8703 32.6675 20.1353 33.3672 19.2622 33.3672C18.3756 33.3672 17.6542 32.6458 17.6542 31.76ZM35.511 40.5768H25.3266L21.5916 34.101C22.2246 33.4728 22.5626 32.5743 22.5626 31.76C22.5626 30.8714 22.1682 29.9986 21.5908 29.4225C21.5905 29.4222 21.5904 29.4219 21.5902 29.4217L25.3268 22.9514H32.7602C33.2728 24.5353 35.0203 25.5821 36.7571 25.1147C36.7586 25.1143 36.7599 25.1143 36.7613 25.1139L40.5987 31.76L35.511 40.5768ZM37.505 21.9276C37.505 22.8305 36.7745 23.5348 35.8978 23.5348C35.0549 23.5348 34.3517 22.882 34.2972 22.0499C34.2955 22.0251 34.293 21.9515 34.2897 21.9276C34.2897 21.0409 35.0111 20.3196 35.8978 20.3196C36.7481 20.3196 37.505 21.0165 37.505 21.9276ZM36.9282 18.7942C36.9173 18.7906 36.9059 18.7894 36.895 18.786C36.7173 18.729 36.2992 18.6273 35.8978 18.6273C34.3922 18.6273 32.9816 19.7249 32.6652 21.2591H25.3272L21.5916 14.7832C22.2143 14.1653 22.5626 13.2729 22.5626 12.4422C22.5626 11.5529 22.1758 10.6884 21.5908 10.1048C21.5904 10.1044 21.5903 10.1041 21.59 10.1037L25.3266 3.63364H35.511L40.5979 12.4422L36.9282 18.7942Z" fill="#79C312"></path>
<path d="M34.9236 27.0073C34.5187 27.2412 34.3799 27.7585 34.6137 28.1634L36.6911 31.7603L33.5569 37.1926H27.2826L25.306 33.7666C25.0722 33.3617 24.5533 33.2221 24.15 33.4568C23.7451 33.6906 23.6063 34.2079 23.8402 34.6128L26.0613 38.4618C26.2125 38.7237 26.4918 38.8849 26.7943 38.8849H34.0452C34.3477 38.8849 34.627 38.7237 34.7782 38.4618L38.4008 32.1834C38.552 31.9215 38.552 31.5992 38.4008 31.3373L36.0796 27.3172C35.845 26.9115 35.326 26.7735 34.9236 27.0073Z" fill="#79C312"></path>
<path d="M34.0458 5.32617H26.7923C26.4899 5.32617 26.2106 5.4873 26.0594 5.74925L23.8382 9.59495C23.6044 9.99985 23.7432 10.5171 24.1481 10.751C24.5513 10.984 25.0694 10.846 25.3041 10.4411L27.2807 7.01848H33.5574L36.6892 12.4416L34.8208 15.6759C34.587 16.0799 34.7258 16.598 35.1307 16.8319C35.5342 17.065 36.0527 16.9273 36.2867 16.522L38.3996 12.8647C38.5509 12.6028 38.5509 12.2805 38.3996 12.0186L34.7787 5.74925C34.6275 5.4873 34.3482 5.32617 34.0458 5.32617Z" fill="#79C312"></path>
<path d="M10.0483 29.2213H14.5071C14.9748 29.2213 15.3533 28.8428 15.3533 28.3752C15.3533 27.9075 14.9748 27.529 14.5071 27.529H10.5375L7.40901 22.1042L10.5383 16.6728H14.5071C14.9748 16.6728 15.3533 16.2943 15.3533 15.8266C15.3533 15.3589 14.9748 14.9805 14.5071 14.9805H10.0491C9.74668 14.9805 9.46738 15.1424 9.31616 15.4044L5.69935 21.6819C5.54813 21.9431 5.54813 22.2653 5.69935 22.5273L9.31534 28.7982C9.46655 29.0602 9.74585 29.2213 10.0483 29.2213Z" fill="#79C312"></path>
</svg>