<?xml version="1.0"?> <svg xmlns="http://www.w3.org/2000/svg" width="131" height="50" viewBox="0 0 131 50" fill="none"><g clip-path="url(#clip0_5290_445)"><mask id="mask0_5290_445" style="mask-type:luminance" maskUnits="userSpaceOnUse" x="0" y="0" width="131" height="50"><path d="M131 0H0V50H131V0Z" fill="white"></path></mask><g mask="url(#mask0_5290_445)"><mask id="mask1_5290_445" style="mask-type:luminance" maskUnits="userSpaceOnUse" x="-43" y="-81" width="217" height="212"><path d="M173.307 -80.9734H-42.3162V130.965H173.307V-80.9734Z" fill="white"></path></mask><g mask="url(#mask1_5290_445)"><path d="M12.1951 49.9913C10.6262 49.9913 9.06863 49.7169 7.58982 49.1616C4.6592 48.0598 2.39708 45.9337 1.53951 43.4713C0.515365 40.5355 0.715692 37.3098 2.07521 34.843C2.74147 33.6351 3.67557 32.6196 4.84377 31.8209C1.67681 29.7744 -0.270186 26.2302 0.00892079 22.4735C0.339797 17.989 3.97719 14.0775 8.65222 13.1727C14.5787 12.0267 18.7518 16.4382 18.9274 16.6262L16.4987 18.8054C16.4695 18.7722 13.4105 15.5466 9.28696 16.3452C6.5004 16.8851 3.54277 19.2435 3.28617 22.7103C3.02733 26.1926 5.60231 29.4182 9.27571 30.2103L9.32523 33.3541C7.25669 33.8674 5.79138 34.8873 4.96531 36.3851C3.8714 38.3696 4.08523 40.8054 4.64794 42.4249C5.1949 43.9913 6.73224 45.3828 8.76251 46.1439C11.4973 47.1705 14.6192 46.905 17.3293 45.4138L18.9341 48.2324C16.8161 49.3983 14.4932 49.9913 12.1928 49.9913" fill="#484848"></path><path d="M120.104 50.0664C116.383 50.0664 113.635 48.146 112.793 47.4779L114.859 44.9646C115.564 45.5243 118.118 47.3053 121.416 46.719C124.128 46.2389 127.138 44.0907 127.644 40.9204C128.218 37.312 125.38 33.5774 121.317 32.5974L120.867 29.6416C124.855 27.3031 126.154 22.8053 124.826 20.2279C124.108 18.8363 122.501 17.7367 120.527 17.2898C117.95 16.7058 115.208 17.312 113 18.9535L111.015 16.3783C114.002 14.1571 117.736 13.3407 121.265 14.1416C124.178 14.8031 126.604 16.531 127.759 18.7677C129.451 22.0509 128.607 27.073 125.004 30.5597C129.107 32.7389 131.585 37.0597 130.892 41.4226C130.226 45.604 126.57 49.0907 122.001 49.9004C121.346 50.0177 120.711 50.0686 120.104 50.0686" fill="#484848"></path><path d="M16.3321 40.8938V22.9735H20.0145L23.6992 32.6217C23.8072 32.9336 23.958 33.4071 24.1538 34.0509C24.3496 34.6925 24.5725 35.4469 24.8223 36.3142C24.631 35.0465 24.4892 33.8827 24.3969 32.823C24.3069 31.7633 24.2596 30.7743 24.2596 29.8584V22.9712H27.6314V40.8916H24.2596L20.2643 30.8628C20.1968 30.7168 20.0235 30.1062 19.7399 29.0354C19.6071 28.5442 19.5013 28.1615 19.427 27.8827C19.5103 28.5774 19.5733 29.3606 19.6138 30.2323C19.6544 31.1018 19.6769 32.1438 19.6769 33.3562V40.8916H16.3298L16.3321 40.8938Z" fill="#484848"></path><path d="M45.6947 40.8938V26.2898H42.9104V22.9734H52.1367V26.2898H49.3524V40.8938H45.6947Z" fill="#484848"></path><path d="M74.2894 40.8938V26.2898H71.5051V22.9734H80.7314V26.2898H77.9471V40.8938H74.2894Z" fill="#484848"></path><path d="M86.3901 22.9734H82.6807V40.8938H86.3901V22.9734Z" fill="#484848"></path><path d="M101.489 33.1328C100.998 35.8231 100.037 37.8585 98.6011 39.239C97.1651 40.6196 95.4882 41.1417 93.5727 40.8054C91.5897 40.4558 90.1897 39.3895 89.3726 37.6041C88.5555 35.8187 88.4047 33.5089 88.9202 30.6749C89.4356 27.8474 90.399 25.728 91.8103 24.3187C93.2216 22.9094 94.9052 22.3762 96.8657 22.7213C98.833 23.0665 100.226 24.1616 101.05 26.0001C101.874 27.8408 102.02 30.2191 101.489 33.1351M94.1827 37.4448C95.0988 37.6063 95.8731 37.2567 96.4988 36.3939C97.1246 35.5311 97.6107 34.1528 97.9551 32.2612C98.3018 30.3519 98.3333 28.8873 98.0519 27.8629C97.7683 26.8408 97.1673 26.2501 96.2512 26.0886C95.3329 25.9271 94.5631 26.2766 93.9418 27.1328C93.3206 27.9912 92.8344 29.3806 92.4855 31.2988C92.1389 33.2058 92.1051 34.6682 92.3842 35.6837C92.6656 36.697 93.2643 37.2833 94.1827 37.4448Z" fill="#484848"></path><path d="M103.652 40.8938V22.9735H107.337L111.019 32.6217C111.127 32.9336 111.278 33.4071 111.476 34.0509C111.672 34.6925 111.895 35.4469 112.145 36.3142C111.953 35.0465 111.811 33.8827 111.719 32.823C111.627 31.7633 111.582 30.7743 111.582 29.8584V22.9712H114.954V40.8916H111.582L107.587 30.8628C107.519 30.7168 107.346 30.1062 107.062 29.0354C106.929 28.5442 106.824 28.1615 106.749 27.8827C106.833 28.5774 106.896 29.3606 106.936 30.2323C106.977 31.1018 106.999 32.1438 106.999 33.3562V40.8916H103.652V40.8938Z" fill="#484848"></path><path d="M43.4077 -0.0464332C44.9428 -0.0154597 46.5702 0.0155102 48.103 0.261086C49.6066 0.508873 51.1416 1.00002 52.2671 2.17037C53.3948 3.34073 53.8022 4.90931 53.7707 6.38719C53.7076 7.89604 53.2394 9.37392 52.1118 10.5111C50.9841 11.6195 49.4828 12.0199 48.0422 12.1726C47.1014 12.2655 46.1627 12.2345 45.2241 12.2035L45.3794 20.0221L42.1247 20.0841L41.6858 -0.0751953L43.4077 -0.0442254V-0.0464332ZM45.1611 9.00223C46.0997 9.03321 46.9776 9.0332 47.6978 8.97126C48.7625 8.84736 49.4513 8.60179 49.7956 8.23232C50.14 7.89382 50.4844 7.12391 50.4844 6.32303C50.5159 5.49117 50.2346 4.75444 49.8879 4.354C49.512 3.98453 48.7287 3.61507 47.5718 3.43144C46.82 3.30976 45.9422 3.24781 45.0351 3.21684L45.1611 9.00223Z" fill="#484848"></path><path d="M66.1413 10.4491C66.1413 12.8186 65.9838 14.9425 65.0452 16.6969C64.1043 18.4204 62.3216 19.4669 60.5659 19.4359C58.7833 19.405 57.0614 18.3584 56.1205 16.604C55.1504 14.8805 54.9298 12.7566 54.8983 10.3872C54.8668 8.01775 55.0536 5.43146 55.2134 2.84739L58.4682 3.062C58.2813 5.64607 58.1238 8.17041 58.1553 10.3252C58.1868 12.4801 58.5312 14.2035 59.0016 15.0973C59.4698 15.958 60.064 16.2058 60.629 16.2345C61.1602 16.2345 61.6914 16.0177 62.1325 15.1881C62.603 14.3584 62.8843 12.604 62.8843 10.4181C62.8843 8.23235 62.6953 5.67704 62.4477 3.09297L65.7024 2.81421C65.923 5.43147 66.1728 8.04651 66.1413 10.4469" fill="#484848"></path><path d="M41.2986 32.3275C41.1658 34.6948 40.8889 36.8054 39.8535 38.5067C38.8182 40.1771 36.977 41.124 35.228 40.9979C33.4476 40.8696 31.7865 39.7324 30.9469 37.9293C30.0758 36.155 29.9768 34.0222 30.0781 31.655C30.1794 29.2877 30.6003 25.1638 30.9019 22.5908L34.1409 22.9824C33.8077 25.5532 33.4228 29.6174 33.3328 31.77C33.2428 33.9227 33.4904 35.6638 33.909 36.5798C34.3277 37.4647 34.9107 37.7435 35.4711 37.8054C36.0023 37.8342 36.547 37.6483 37.031 36.843C37.5464 36.0399 37.9268 34.3032 38.0506 32.1218C38.1722 29.9713 38.2172 25.8253 38.1136 23.2324L41.3796 23.1328C41.4517 25.7567 41.4674 29.9337 41.3008 32.3297" fill="#484848"></path><path d="M69.9904 0.261014C71.5255 0.261014 73.0899 0.261014 74.625 0.475616C76.1285 0.690218 77.6321 1.12163 78.789 2.26101C79.9167 3.39818 80.3872 4.938 80.4187 6.3849C80.4502 7.86278 80.0113 9.37163 78.9151 10.5088C77.8189 11.6173 76.3154 12.0177 74.9063 12.1704C74.8118 12.1704 74.7173 12.1704 74.5935 12.2013C75.3137 12.9403 76.1285 13.6482 77.1302 14.2323C79.291 15.4934 82.7663 16.4181 85.6159 16.6018C88.4655 16.7566 90.9077 16.2013 93.5052 15.6173L94.257 18.7566C91.628 19.3407 88.8076 19.9889 85.4268 19.8031C82.0461 19.5885 78.2871 18.6327 75.469 16.9712C74.06 16.1704 72.9638 15.1858 72.0567 14.1704L72.2458 19.9867L68.9888 20.1084L68.3 0.256592H69.9904V0.261014ZM71.8699 9.00216C72.84 9.03314 73.7786 9.06411 74.5619 8.97119C75.5951 8.87827 76.2523 8.60172 76.5652 8.2942C76.8781 7.9557 77.1617 7.21676 77.1617 6.44906C77.1302 5.64818 76.8488 4.90924 76.4729 4.5088C76.097 4.13933 75.316 3.83181 74.1568 3.64597C73.4365 3.55305 72.5587 3.52429 71.6831 3.49331L71.8722 9.00216H71.8699ZM87.6822 0.723402C88.5893 0.785349 89.4671 1.09287 90.1559 1.80084C91.0945 2.75438 91.189 4.04862 90.9707 5.12384C90.7209 6.1703 90.1874 7.15481 89.4064 8.01765C88.1549 9.43358 86.4937 10.2035 84.8641 10.9115C85.3661 12.1438 86.2416 12.635 86.8674 12.6969C87.5877 12.7589 88.7153 12.1128 90.1244 11.0951L92.0331 13.6814C90.6241 14.6969 88.9337 16.0509 86.6153 15.8982C84.2969 15.7434 82.1676 13.9292 81.4788 11.0973C80.7901 8.29641 81.2605 4.88048 83.2323 2.60393C84.2024 1.46455 85.4876 0.880484 86.7391 0.725617C86.9889 0.725617 87.2095 0.694647 87.4278 0.694647C87.5224 0.694647 87.5832 0.725617 87.6777 0.725617M87.088 3.92473C86.649 3.98667 86.1494 4.1703 85.7104 4.66366C85.2715 5.18579 84.8956 6.26544 84.7088 7.43358C85.6474 6.94022 86.4937 6.44907 86.9642 5.89376C87.4031 5.43358 87.6844 4.84729 87.779 4.44906C87.842 4.1703 87.8105 4.04862 87.8105 4.01765C87.7475 4.01765 87.5606 3.92473 87.2478 3.92473H87.0902H87.088Z" fill="#484848"></path><path d="M69.853 23.1438H66.1436V40.8938H69.853V23.1438Z" fill="#484848"></path><path d="M53.8653 40.8275V22.8718H57.7458C59.8796 22.8718 61.4282 23.2744 62.387 24.0775C63.3482 24.8806 63.8276 26.1638 63.8276 27.9249C63.8276 29.2059 63.5822 30.2302 63.0916 31.0067C62.6009 31.7811 61.8603 32.3253 60.87 32.6351L64.4556 40.8253H60.5233L57.4757 33.3983V40.8253H53.863L53.8653 40.8275ZM57.4757 30.6572C57.5184 30.6572 57.5882 30.6616 57.6873 30.6705C57.7863 30.6793 57.8561 30.6837 57.8988 30.6837C58.7091 30.6837 59.3214 30.4669 59.731 30.0311C60.1407 29.5974 60.3455 28.9581 60.3455 28.1151C60.3455 27.2722 60.1564 26.6262 59.7805 26.2324C59.4047 25.8386 58.8037 25.6439 57.9754 25.6439C57.8471 25.6439 57.748 25.6439 57.6805 25.6483C57.6107 25.6528 57.5477 25.6594 57.4892 25.666L57.4757 30.6594V30.6572Z" fill="#484848"></path></g></g></g><defs><clipPath id="clip0_5290_445"><rect width="131" height="50" fill="white"></rect></clipPath></defs></svg>